<svg xmlns="http://www.w3.org/2000/svg" viewBox="0 0 639.52 639.52"><defs><style>.cls-1{fill:#0f996d;}.cls-2{font-size:236.02px;font-family:CenturyGothic-BoldItalic, Century Gothic;font-weight:700;font-style:italic;}.cls-2,.cls-5{fill:#f9f9f9;}.cls-3{fill:#ffd731;}.cls-4{fill:#f7f7f7;}.cls-6{fill:#f4f4f4;}</style></defs><title>Asset 8</title><g id="Layer_2" data-name="Layer 2"><g id="Layer_1-2" data-name="Layer 1"><circle class="cls-1" cx="319.76" cy="319.76" r="319.76"/><text class="cls-2" transform="translate(247.44 399.64) rotate(-0.69)">D</text><polygon class="cls-3" points="367.39 195.14 213.03 187.93 219.32 181.64 213.03 316.34 206.74 181.64 206.46 175.66 213.03 175.35 367.39 168.14 367.39 195.14"/><polygon class="cls-3" points="276.05 428.88 430.41 436.02 424.06 442.38 430.41 305.16 436.76 442.38 437.04 448.42 430.41 448.73 276.05 455.88 276.05 428.88"/><polygon class="cls-4" points="387.81 207.34 516.79 93.45 394.65 214.64 387.81 207.34"/><path class="cls-5" d="M413.61,226.27c4.82-5.36,9.78-10.57,14.66-15.86l7.43-7.83,7.51-7.74c2.51-2.57,4.92-5.26,7.36-7.9a78.2,78.2,0,0,1,7.85-7.38q4.18-3.42,8.68-6.49a72.87,72.87,0,0,1,9.53-5.57l.55.59a72.8,72.8,0,0,1-6.22,9.12q-3.37,4.28-7.08,8.2a78.31,78.31,0,0,1-7.9,7.32c-2.81,2.25-5.65,4.47-8.4,6.79l-8.25,7L431,213.34c-5.62,4.5-11.16,9.09-16.85,13.52Z"/><polygon class="cls-6" points="235.57 411.48 106.59 525.37 228.73 404.18 235.57 411.48"/><path class="cls-4" d="M207.88,394.43c-4.82,5.36-9.78,10.57-14.66,15.86l-7.43,7.83-7.51,7.74c-2.51,2.57-4.92,5.26-7.36,7.9a78.22,78.22,0,0,1-7.85,7.38q-4.18,3.42-8.68,6.49a72.85,72.85,0,0,1-9.53,5.57l-.55-.58a72.8,72.8,0,0,1,6.22-9.12q3.37-4.28,7.08-8.2a78.31,78.31,0,0,1,7.9-7.32c2.81-2.25,5.65-4.47,8.4-6.79l8.25-7,8.33-6.86c5.62-4.5,11.16-9.09,16.85-13.52Z"/></g></g></svg>